<?xml version="1.0" encoding="iso-8859-1"?>
<!-- Generator: Adobe Illustrator 19.0.0, SVG Export Plug-In . SVG Version: 6.00 Build 0)  -->
<svg version="1.1" id="Capa_1" xmlns="http://www.w3.org/2000/svg" xmlns:xlink="http://www.w3.org/1999/xlink" x="0px" y="0px"
	 viewBox="0 0 512 512" style="enable-background:new 0 0 512 512;" xml:space="preserve">
<g>
	<g>
		<path d="M364.545,210.999c-18.868,0-33.545-15.306-33.545-33.545v-27.455C331,61.986,253.916-7.939,165.066,0.728
			C87.697,8.269,30,77.273,30,156.005v87.574c-17.459,6.192-30,22.865-30,42.42c0,19.555,12.541,36.228,30,42.42v48.58
			c0,74.439,60.561,135,135,135h199.604c81.274,0,147.396-65.673,147.396-146.396v-7.207
			C512,277.559,445.375,210.999,364.545,210.999z M30,285.999c0-8.271,6.729-15,15-15h60c8.271,0,15,6.729,15,15s-6.729,15-15,15H45
			C36.729,300.999,30,294.27,30,285.999z M120,243.578v-93.58c0-35.034,31.332-63.348,67.317-59.676
			C217.42,93.396,241,121.558,241,154.436v23.018c0,66.219,53.047,123.544,123.598,123.544c0.314,0,0.627-0.002,0.944-0.002
			c27.295,0,56.458,25.434,56.458,64.606c0,31.097-25.748,56.396-57.396,56.396H165c-24.813,0-45-20.187-45-45v-48.58
			c17.459-6.192,30-22.865,30-42.42S137.459,249.77,120,243.578z M482,365.602c0,64.181-52.664,116.396-117.396,116.396H165
			c-57.897,0-105-47.103-105-105v-46h30v46c0,41.355,33.645,75,75,75h199.604c47.756,0,87.396-38.625,87.396-86.396
			c0-56.086-42.859-94.606-86.454-94.606c-0.315,0-0.628,0.002-0.942,0.002c-53.294,0-93.604-43.279-93.604-93.544v-23.018
			c0.001-46.967-33.955-89.192-80.636-93.958C136.564,54.983,90,97.367,90,149.999v91H60v-84.994
			c0-64.427,47.429-119.517,107.977-125.418C239.529,23.614,301,79.98,301,149.999v27.455c0,34.324,27.574,63.545,63.545,63.545
			C428.212,240.999,482,294.76,482,358.395V365.602z"/>
	</g>
</g>
<g>
</g>
<g>
</g>
<g>
</g>
<g>
</g>
<g>
</g>
<g>
</g>
<g>
</g>
<g>
</g>
<g>
</g>
<g>
</g>
<g>
</g>
<g>
</g>
<g>
</g>
<g>
</g>
<g>
</g>
</svg>
